<?xml version="1.0" standalone="no"?>
<!DOCTYPE svg PUBLIC "-//W3C//DTD SVG 20010904//EN"
 "http://www.w3.org/TR/2001/REC-SVG-20010904/DTD/svg10.dtd">
<svg version="1.0" xmlns="http://www.w3.org/2000/svg"
 width="201.000000pt" height="201.000000pt" viewBox="0 0 201.000000 201.000000"
 preserveAspectRatio="xMidYMid meet">
<metadata>
Created by potrace 1.11, written by Peter Selinger 2001-2013
</metadata>
<g transform="translate(0.000000,201.000000) scale(0.100000,-0.100000)"
fill="#000000" stroke="none">
<path d="M1245 1789 c-58 -22 -103 -61 -140 -119 -29 -46 -40 -96 -49 -225 -4
-49 -9 -106 -11 -125 -2 -19 -7 -66 -10 -105 -4 -38 -7 -71 -8 -72 -1 -1 -21
-3 -44 -6 -23 -2 -48 -9 -55 -15 -9 -7 -18 -7 -30 2 -29 21 -132 12 -157 -13
-12 -12 -21 -25 -21 -31 0 -5 -25 -10 -55 -10 l-55 0 -1 33 c0 17 0 65 0 104
0 53 -4 75 -15 81 -12 7 -12 19 3 85 9 42 13 80 9 84 -14 14 -26 -22 -52 -155
-8 -42 -27 -12 -44 71 -7 36 -16 57 -23 54 -7 -3 -11 -10 -9 -18 18 -75 21
-113 10 -120 -7 -4 -12 -25 -12 -46 -1 -37 -2 -38 -35 -38 l-35 0 -28 100
c-16 55 -33 104 -38 109 -5 5 -22 4 -41 -3 -21 -7 -35 -8 -39 -1 -8 13 -80 10
-82 -4 -1 -6 -2 -54 -2 -106 -1 -91 -2 -95 -24 -98 -20 -3 -22 -9 -22 -68 l0
-64 -65 0 -65 0 0 -434 0 -434 260 0 c236 0 260 1 261 16 0 9 1 186 1 392 l1
375 244 0 244 0 -3 -65 c-3 -57 -5 -65 -24 -68 -61 -9 -90 -101 -46 -145 20
-20 35 -22 152 -27 l129 -5 -90 -215 c-105 -249 -109 -260 -82 -260 12 0 63
59 157 185 76 102 142 184 146 183 4 -2 69 -85 144 -185 96 -128 143 -183 157
-183 10 0 19 2 19 5 0 6 -168 413 -185 448 l-13 27 129 0 c128 0 130 0 154 26
33 36 33 87 0 119 -13 14 -33 25 -45 25 -15 0 -20 7 -21 28 0 15 -2 45 -5 67
l-5 40 115 0 116 1 1 -31 c0 -16 0 -193 -1 -392 l-1 -363 46 0 45 0 0 435 0
435 -165 0 -165 0 -1 38 c0 20 -2 48 -4 62 -1 14 -6 61 -9 105 -4 44 -9 98
-11 120 -2 22 -7 72 -10 110 -8 97 -29 156 -74 207 -78 88 -207 120 -316 77z
m-940 -580 c-4 -5 -15 -9 -26 -9 -17 0 -19 7 -18 93 l0 92 25 -83 c13 -46 22
-88 19 -93z"/>
</g>
</svg>
